<?xml version="1.0" encoding="UTF-8"?>
<!DOCTYPE svg PUBLIC "-//W3C//DTD SVG 1.1//EN" "http://www.w3.org/Graphics/SVG/1.1/DTD/svg11.dtd">
<!-- Creator: CorelDRAW -->
<svg xmlns="http://www.w3.org/2000/svg" xml:space="preserve" width="1.83944in" height="1.4065in" version="1.1" style="shape-rendering:geometricPrecision; text-rendering:geometricPrecision; image-rendering:optimizeQuality; fill-rule:evenodd; clip-rule:evenodd"
viewBox="0 0 503.62 385.09"
 xmlns:xlink="http://www.w3.org/1999/xlink"
 xmlns:xodm="http://www.corel.com/coreldraw/odm/2003">
 <defs>
  <style type="text/css">
   <![CDATA[
    .fil0 {fill:#264653;fill-rule:nonzero}
    .fil1 {fill:white;fill-rule:nonzero}
   ]]>
  </style>
 </defs>
 <g id="Layer_x0020_1">
  <metadata id="CorelCorpID_0Corel-Layer"/>
  <g id="_1808280330400">
   <polygon class="fil0" points="503.62,158.7 367.56,156.48 338.88,197.54 148.57,197.54 158.67,138.22 -0,227.51 -0,229.02 148.57,303.37 138.47,264.22 338.88,259.18 365.84,297.11 495.54,307.1 434.03,228.31 "/>
   <path class="fil1" d="M106.15 326.98l6.97 -65.38 -20.71 62.15 -47.88 -38.14 40.81 50.34 -26.97 43.89 39.39 -36.42 43.23 41.67 -30.51 -46.71 44.04 -18.56 -48.38 7.16zm240.2 -234.97l-2.93 -92.01 22.22 87.27 72.73 -51.65 -60.81 74.96 40.2 65.58 -58.69 -54.18 -55.25 64.77 36.26 -72.24 -70.91 -33.49 77.17 11z"/>
  </g>
 </g>
</svg>
