<?xml version="1.0" encoding="UTF-8"?>
<!DOCTYPE svg PUBLIC "-//W3C//DTD SVG 1.1//EN" "http://www.w3.org/Graphics/SVG/1.1/DTD/svg11.dtd">
<!-- Creator: CorelDRAW -->
<svg xmlns="http://www.w3.org/2000/svg" xml:space="preserve" width="1.83942in" height="1.4065in" version="1.1" style="shape-rendering:geometricPrecision; text-rendering:geometricPrecision; image-rendering:optimizeQuality; fill-rule:evenodd; clip-rule:evenodd"
viewBox="0 0 1839.42 1406.5"
 xmlns:xlink="http://www.w3.org/1999/xlink"
 xmlns:xodm="http://www.corel.com/coreldraw/odm/2003">
 <defs>
  <style type="text/css">
   <![CDATA[
    .fil2 {fill:#FEFEFE;fill-rule:nonzero}
    .fil0 {fill:#264653;fill-rule:nonzero}
    .fil1 {fill:white;fill-rule:nonzero}
   ]]>
  </style>
 </defs>
 <g id="Layer_x0020_1">
  <metadata id="CorelCorpID_0Corel-Layer"/>
  <g id="_1808280330400">
   <polygon class="fil0" points="-0,579.63 496.94,571.52 601.69,721.49 1296.78,721.49 1259.89,504.83 1839.42,830.95 1839.42,836.47 1296.78,1108.02 1333.67,965.03 601.69,946.63 503.22,1085.16 29.51,1121.65 254.17,833.87 "/>
   <path class="fil1" d="M1451.72 1194.26l-25.46 -238.8 75.64 227 174.88 -139.3 -149.06 183.86 98.5 160.3 -143.87 -133.02 -157.89 152.2 111.43 -170.6 -160.85 -67.79 176.7 26.15 -0.04 0zm-877.3 -858.2l10.7 -336.06 -81.16 318.74 -265.64 -188.65 222.1 273.78 -146.83 239.52 214.36 -197.89 201.8 236.57 -132.44 -263.85 258.99 -122.32 -281.85 40.18 -0.04 -0.04z"/>
  </g>
  <polygon class="fil2" points="757.48,774.94 753.85,894.24 724.76,893.35 727.07,818.73 698.94,892.56 673.79,891.78 650.07,816.2 647.79,891 618.74,890.1 622.4,770.78 657.89,771.88 687.82,855.97 722.13,773.84 "/>
  <path id="_1" class="fil2" d="M834.85 773.51c11.34,0.33 21.53,3.28 30.6,8.84 9.09,5.56 16.13,13.09 21.18,22.59 5.04,9.5 7.36,20.15 7,31.94 -0.36,11.79 -3.37,22.3 -9.04,31.53 -5.67,9.24 -13.2,16.36 -22.59,21.35 -9.41,4.96 -19.69,7.31 -30.92,6.96 -11.23,-0.36 -21.36,-3.31 -30.43,-8.84 -9.09,-5.56 -16.17,-13.11 -21.27,-22.7 -5.07,-9.56 -7.44,-20.23 -7.09,-32.03 0.36,-11.77 3.37,-22.26 9.04,-31.44 5.67,-9.18 13.2,-16.25 22.59,-21.24 9.39,-4.99 19.69,-7.31 30.92,-6.95zm-0.82 27.02c-9.52,-0.28 -17.17,2.56 -22.96,8.56 -5.82,6 -8.88,14.32 -9.2,24.98 -0.32,10.55 2.24,19.01 7.64,25.4 5.43,6.41 12.9,9.75 22.39,10.06 9.41,0.28 17.03,-2.62 22.91,-8.68 5.85,-6.03 8.94,-14.35 9.26,-24.87 0.32,-10.55 -2.21,-19.01 -7.64,-25.43 -5.4,-6.39 -12.87,-9.75 -22.4,-10.04z"/>
  <path id="_2" class="fil2" d="M969.9 898.84l-24.61 -46.17 -6.63 -0.21 -1.39 45.39 -29.06 -0.89 3.67 -120.17 49.64 1.52c9.5,0.29 17.51,2.18 23.98,5.68 6.47,3.47 11.26,8.15 14.37,13.95 3.11,5.83 4.54,12.42 4.33,19.79 -0.28,8.73 -2.91,16.06 -7.91,22.04 -5.03,5.98 -12.14,9.94 -21.4,11.92l27.12 48.15 -32.12 -1zm-30.64 -66.25l18 0.54c5.78,0.18 10.07,-0.96 12.87,-3.44 2.82,-2.45 4.29,-6.19 4.43,-11.17 0.15,-4.77 -1.13,-8.55 -3.81,-11.34 -2.7,-2.8 -6.87,-4.3 -12.54,-4.48l-18.03 -0.54 -0.93 30.42z"/>
  <polygon id="_3" class="fil2" points="1048.43,803.37 1047.64,828.51 1088.24,829.76 1087.59,851.67 1046.97,850.43 1046.15,877.1 1091.85,878.52 1091.14,901.8 1016.38,899.52 1020.05,779.34 1094.83,781.65 1094.12,804.75 "/>
 </g>
</svg>
