<?xml version="1.0" encoding="UTF-8"?>
<!DOCTYPE svg PUBLIC "-//W3C//DTD SVG 1.1//EN" "http://www.w3.org/Graphics/SVG/1.1/DTD/svg11.dtd">
<!-- Creator: CorelDRAW -->
<svg xmlns="http://www.w3.org/2000/svg" xml:space="preserve" width="1.38035in" height="1.64685in" version="1.1" style="shape-rendering:geometricPrecision; text-rendering:geometricPrecision; image-rendering:optimizeQuality; fill-rule:evenodd; clip-rule:evenodd"
viewBox="0 0 293.11 349.7"
 xmlns:xlink="http://www.w3.org/1999/xlink"
 xmlns:xodm="http://www.corel.com/coreldraw/odm/2003">
 <defs>
  <style type="text/css">
   <![CDATA[
    .fil1 {fill:black;fill-rule:nonzero}
    .fil0 {fill:#EFB360;fill-rule:nonzero}
   ]]>
  </style>
 </defs>
 <g id="Layer_x0020_1">
  <metadata id="CorelCorpID_0Corel-Layer"/>
  <g id="_1808280241424">
   <path class="fil0" d="M129.87 0l26.1 2.2c-2.29,169.91 -25.57,235.73 13.96,244.69 39.53,8.96 68.75,0 68.75,0l3.29 -53.84 51.13 76.78 -60.8 79.87 5.01 -49.9c-125.54,21.22 -153.39,7.96 -172.01,-52.91 -16.25,-53.13 -34.25,-208.31 -38.56,-246.89l103.13 0z"/>
   <path class="fil1" d="M87.51 264.17l-22.27 -19.14 -4.08 53.91 -4.15 -53.91 -22.27 19.14 19.12 -22.3 -53.85 -4.16 53.85 -4.09 -19.12 -22.3 22.27 19.14 4.08 -53.91 4.08 53.91 22.27 -19.14 -19.12 22.3 53.85 4.09 -53.85 4.09 19.19 22.37zm96.75 -191.28l-45.9 -38.07 38.03 45.96 -59.37 5.59 59.37 5.59 -38.03 45.96 45.9 -38.07 5.59 59.43 5.59 -59.43 45.9 38.07 -38.03 -45.96 59.37 -5.59 -59.37 -5.59 38.03 -45.96 -45.9 38.07 -5.59 -59.43 -5.59 59.43z"/>
  </g>
 </g>
</svg>
