<?xml version="1.0" encoding="UTF-8"?>
<!DOCTYPE svg PUBLIC "-//W3C//DTD SVG 1.1//EN" "http://www.w3.org/Graphics/SVG/1.1/DTD/svg11.dtd">
<!-- Creator: CorelDRAW -->
<svg xmlns="http://www.w3.org/2000/svg" xml:space="preserve" width="2.40622in" height="2.397in" version="1.1" style="shape-rendering:geometricPrecision; text-rendering:geometricPrecision; image-rendering:optimizeQuality; fill-rule:evenodd; clip-rule:evenodd"
viewBox="0 0 2056.84 2048.96"
 xmlns:xlink="http://www.w3.org/1999/xlink"
 xmlns:xodm="http://www.corel.com/coreldraw/odm/2003">
 <defs>
  <style type="text/css">
   <![CDATA[
    .fil0 {fill:#EFB360;fill-rule:nonzero}
    .fil1 {fill:white;fill-rule:nonzero}
   ]]>
  </style>
 </defs>
 <g id="Layer_x0020_1">
  <metadata id="CorelCorpID_0Corel-Layer"/>
  <g id="_1808603206960">
   <path class="fil0" d="M2056.84 387.43l-1878.31 1661.53c1003.33,-1024.48 629.8,-1173.43 -178.54,-971.67l2056.84 -689.87z"/>
   <path class="fil1" d="M1676.32 1765.92l-138.22 -119.66 -25.5 337.51 -25.51 -337.51 -138.22 119.66 118.88 -139.46 -334.85 -25.58 334.85 -25.58 -119.3 -139.46 138.22 119.66 25.5 -337.51 25.51 337.51 138.22 -119.66 -118.88 139.46 335.26 25.58 -334.85 25.58 118.88 139.46zm-427.82 -1548.07l187.17 -13.62 -187.17 -13.62 66.64 -74.27 -77.34 63.95 -14.4 -180.3 -14.4 179.89 -77.34 -63.95 66.64 74.27 -187.17 13.62 187.17 13.61 -66.64 74.27 77.34 -63.96 14.4 179.9 14.4 -179.9 77.34 63.96 -66.64 -73.86zm-237.77 465.82c-234.89,0 -295.36,-60.65 -295.36,-296.25 0,235.6 -60.47,296.25 -295.36,296.25 234.89,0 295.36,60.65 295.36,296.25 0,-235.6 60.47,-296.25 295.36,-296.25zm874.98 143.17c-16.86,-3.3 -33.32,9.08 -38.67,27.64l-272.33 -50.75 234.89 -158.44c4.52,4.95 10.7,7.84 17.69,7.84 13.17,0 23.86,-10.73 23.86,-23.93 0,-13.21 -10.7,-23.93 -23.86,-23.93 -13.17,0 -23.86,10.73 -23.86,23.93 0,3.71 0.82,7.01 2.47,10.31l-235.3 158.44 48.13 -257.87c16.46,1.24 32.09,-12.38 35.79,-31.36 3.7,-20.63 -7.82,-39.61 -25.51,-42.91 -18.1,-3.3 -35.38,10.31 -39.49,30.94 -3.7,18.98 6.17,37.13 22.21,42.08l-48.13 257.46 -156.32 -224.04c4.94,-5.36 8.23,-12.38 9.87,-20.22 3.7,-20.63 -7.82,-39.61 -25.51,-42.91 -18.1,-3.3 -35.38,10.31 -39.49,30.94 -3.71,20.63 7.81,39.61 25.5,42.91 8.64,1.65 17.28,-0.82 24.27,-6.19l155.5 223.22 -280.14 -52.4c1.23,-14.03 -7.41,-26.82 -19.75,-28.88 -13.58,-2.47 -26.74,7.84 -29.62,23.52 -2.88,15.68 5.76,30.12 19.33,32.6 12.34,2.48 24.68,-6.6 28.8,-19.81l280.14 52.4 -241.47 162.15c-3.7,-4.95 -9.87,-8.67 -16.45,-8.67 -11.11,0 -20.57,9.08 -20.57,20.63 0,11.14 9.05,20.63 20.57,20.63 11.11,0 20.57,-9.08 20.57,-20.63 0,-2.06 -0.41,-3.71 -0.82,-5.36l242.3 -163.39 -49.36 264.89c-13.17,-2.06 -26.33,8.25 -29.21,23.52 -2.88,15.68 5.76,30.12 19.33,32.59 13.58,2.48 26.74,-7.84 29.62,-23.52 2.47,-12.79 -3.29,-25.17 -13.17,-30.53l49.37 -265.71 156.32 224.04c-4.94,5.36 -8.22,12.38 -9.87,20.22 -3.7,20.63 7.81,39.61 25.5,42.91 18.1,3.3 35.38,-10.31 39.49,-30.94 3.7,-20.63 -7.82,-39.61 -25.51,-42.91 -8.64,-1.65 -17.28,0.82 -24.27,6.19l-155.5 -223.21 272.33 50.75c-2.06,18.98 9.05,36.31 25.92,39.61 18.1,3.3 35.38,-10.31 39.49,-30.94 4.11,-20.22 -7.4,-39.61 -25.1,-42.91z"/>
  </g>
 </g>
</svg>
