<?xml version="1.0" encoding="UTF-8"?>
<!DOCTYPE svg PUBLIC "-//W3C//DTD SVG 1.1//EN" "http://www.w3.org/Graphics/SVG/1.1/DTD/svg11.dtd">
<!-- Creator: CorelDRAW -->
<svg xmlns="http://www.w3.org/2000/svg" xml:space="preserve" width="1.83942in" height="1.4065in" version="1.1" style="shape-rendering:geometricPrecision; text-rendering:geometricPrecision; image-rendering:optimizeQuality; fill-rule:evenodd; clip-rule:evenodd"
viewBox="0 0 1839.42 1406.5"
 xmlns:xlink="http://www.w3.org/1999/xlink"
 xmlns:xodm="http://www.corel.com/coreldraw/odm/2003">
 <defs>
  <style type="text/css">
   <![CDATA[
    .fil2 {fill:#FEFEFE;fill-rule:nonzero}
    .fil0 {fill:#264653;fill-rule:nonzero}
    .fil1 {fill:white;fill-rule:nonzero}
   ]]>
  </style>
 </defs>
 <g id="Layer_x0020_1">
  <metadata id="CorelCorpID_0Corel-Layer"/>
  <g id="_1808280330400">
   <polygon class="fil0" points="1839.42,579.63 1342.47,571.52 1237.72,721.49 542.63,721.49 579.52,504.83 -0,830.95 -0,836.47 542.63,1108.02 505.75,965.03 1237.72,946.63 1336.19,1085.16 1809.91,1121.65 1585.25,833.87 "/>
   <path class="fil1" d="M387.7 1194.26l25.46 -238.8 -75.64 227 -174.88 -139.3 149.06 183.86 -98.5 160.3 143.87 -133.02 157.89 152.2 -111.43 -170.6 160.85 -67.79 -176.7 26.15 0.04 0zm877.3 -858.2l-10.7 -336.06 81.16 318.74 265.64 -188.65 -222.1 273.78 146.83 239.52 -214.36 -197.89 -201.8 236.57 132.44 -263.85 -258.99 -122.32 281.85 40.18 0.04 -0.04z"/>
  </g>
  <polygon class="fil2" points="755.12,778.39 756.1,897.74 727.03,898 726.42,823.37 701.18,898.2 676.02,898.42 649.38,823.83 649.99,898.63 620.93,898.89 619.92,779.51 655.48,779.22 688.64,862.09 719.73,778.68 "/>
  <path id="_1" class="fil2" d="M832.35 774.23c11.34,-0.09 21.65,2.44 30.93,7.64 9.28,5.2 16.62,12.46 22.03,21.75 5.41,9.32 8.14,19.85 8.24,31.65 0.09,11.8 -2.5,22.42 -7.81,31.87 -5.31,9.45 -12.54,16.85 -21.75,22.2 -9.18,5.35 -19.4,8.06 -30.63,8.16 -11.23,0.1 -21.48,-2.46 -30.76,-7.66 -9.28,-5.19 -16.65,-12.45 -22.11,-21.83 -5.47,-9.35 -8.23,-19.94 -8.33,-31.73 -0.09,-11.77 2.5,-22.36 7.81,-31.78 5.31,-9.4 12.57,-16.77 21.75,-22.09 9.21,-5.35 19.4,-8.09 30.63,-8.16zm0.24 27.02c-9.53,0.07 -17.09,3.22 -22.64,9.47 -5.56,6.22 -8.28,14.66 -8.21,25.32 0.11,10.52 2.96,18.89 8.64,25.07 5.67,6.2 13.26,9.27 22.79,9.19 9.39,-0.07 16.91,-3.28 22.52,-9.55 5.61,-6.28 8.39,-14.69 8.29,-25.23 -0.1,-10.55 -2.96,-18.93 -8.63,-25.1 -5.65,-6.18 -13.23,-9.24 -22.76,-9.17z"/>
  <path id="_2" class="fil2" d="M972.19 894.44l-26.39 -45.19 -6.63 0.06 0.36 45.4 -29.06 0.25 -1 -120.23 49.65 -0.4c9.53,-0.07 17.57,1.48 24.2,4.72 6.59,3.23 11.57,7.7 14.89,13.39 3.35,5.71 5.03,12.24 5.11,19.61 0.05,8.73 -2.28,16.18 -7.06,22.34 -4.76,6.17 -11.72,10.42 -20.89,12.74l28.96 47.04 -32.13 0.27zm-33.2 -65.03l18.04 -0.13c5.78,-0.06 10.01,-1.37 12.72,-3.95 2.7,-2.57 4.02,-6.33 3.99,-11.33 -0.04,-4.76 -1.47,-8.51 -4.27,-11.19 -2.8,-2.7 -7.02,-4.02 -12.69,-3.99l-18.04 0.16 0.25 30.43z"/>
  <polygon id="_3" class="fil2" points="1046.9,796.17 1047.12,821.34 1087.75,820.99 1087.95,842.94 1047.31,843.26 1047.52,869.97 1093.26,869.58 1093.45,892.87 1018.65,893.51 1017.65,773.28 1092.47,772.67 1092.67,795.78 "/>
 </g>
</svg>
