<?xml version="1.0" encoding="UTF-8"?>
<!DOCTYPE svg PUBLIC "-//W3C//DTD SVG 1.1//EN" "http://www.w3.org/Graphics/SVG/1.1/DTD/svg11.dtd">
<!-- Creator: CorelDRAW -->
<svg xmlns="http://www.w3.org/2000/svg" xml:space="preserve" width="1.85358in" height="5.18283in" version="1.1" style="shape-rendering:geometricPrecision; text-rendering:geometricPrecision; image-rendering:optimizeQuality; fill-rule:evenodd; clip-rule:evenodd"
viewBox="0 0 1060.64 2965.68"
 xmlns:xlink="http://www.w3.org/1999/xlink"
 xmlns:xodm="http://www.corel.com/coreldraw/odm/2003">
 <defs>
  <style type="text/css">
   <![CDATA[
    .fil0 {fill:#2A9D8F;fill-rule:nonzero}
   ]]>
  </style>
 </defs>
 <g id="Layer_x0020_1">
  <metadata id="CorelCorpID_0Corel-Layer"/>
  <g id="_1808601368304">
   <path class="fil0" d="M43.08 2719.85c40.84,82.39 81.74,164.56 123.73,245.82l-166.81 0 0 -335.4c14.49,30.85 28.82,60.81 43.08,89.58zm-43.08 -2719.85l44.44 0c348,188.01 649.8,458.46 1016.2,615.64l0 135.66c-370.54,-119.81 -727.3,-282.33 -1060.64,-483.51l0 -267.8zm508.41 0l321.98 0c73.7,106.41 144.7,211.03 230.25,300.96l0 175.82c-154.68,-96.45 -284.99,-224.03 -417.39,-354.48 -45.01,-44.34 -89.65,-85.13 -134.84,-122.3zm552.13 0l0.1 0 0 0.22 -0.1 -0.22zm0.1 907.11l0 197.77c-49.51,-18.17 -102.29,-34.03 -156.72,-49.99 -298.23,-87.48 -606.27,-137.75 -903.93,-227.26l0 -248c325.02,149.01 712.42,223.33 1008.85,312.38 17.4,5.23 34.68,10.22 51.79,15.09zm0 446l0 323.95c-55.85,-186.62 -193.17,-265.84 -400.77,-334.07 -215.46,-70.8 -438.64,-113.61 -659.87,-163.58l0 -124.97c278.84,66.66 564.23,109.57 836.99,198.48 85.31,27.81 160.7,59.44 223.66,100.19zm0 972.52l0 640.04 -102.1 0c17.73,-128.66 41.78,-252.37 57.78,-356.39 14.35,-93.26 30.58,-188.13 44.32,-283.65zm-346.72 -818.16c-67.96,-73.36 -211.15,-108.86 -302.31,-136.67 -135.21,-41.26 -273.21,-71.5 -411.61,-100.22l0 76.7c46.68,10.69 93.13,22.3 139.25,35.39 221.84,62.94 372.31,183.67 439.71,401.77 84.05,271.96 23.41,610.82 38.47,892.81 5.88,110.07 12.56,189.39 43.86,288.43l150.95 0c4.56,-114.07 13.52,-228.02 20.69,-340.48 16.76,-262.85 43.37,-533.8 0.46,-795.57 -16.92,-103.25 -45.27,-242.09 -119.46,-322.16zm-713.92 -20.61l0 712.92c294.68,304.96 360,765.9 360,765.9l191.98 0c0,0 -76.26,-214.55 -76.3,-503.01 4.92,-896.24 -475.69,-975.81 -475.69,-975.81z"/>
  </g>
 </g>
</svg>
