<?xml version="1.0" encoding="UTF-8"?>
<!DOCTYPE svg PUBLIC "-//W3C//DTD SVG 1.1//EN" "http://www.w3.org/Graphics/SVG/1.1/DTD/svg11.dtd">
<!-- Creator: CorelDRAW -->
<svg xmlns="http://www.w3.org/2000/svg" xml:space="preserve" width="5.02779in" height="2.06053in" version="1.1" style="shape-rendering:geometricPrecision; text-rendering:geometricPrecision; image-rendering:optimizeQuality; fill-rule:evenodd; clip-rule:evenodd"
viewBox="0 0 4804.52 1969.03"
 xmlns:xlink="http://www.w3.org/1999/xlink"
 xmlns:xodm="http://www.corel.com/coreldraw/odm/2003">
 <defs>
  <style type="text/css">
   <![CDATA[
    .fil1 {fill:#264653;fill-rule:nonzero}
    .fil2 {fill:#7AA782;fill-rule:nonzero}
    .fil0 {fill:#E87854;fill-rule:nonzero}
    .fil3 {fill:#EFB360;fill-rule:nonzero}
    .fil4 {fill:#FBFCFB;fill-rule:nonzero}
   ]]>
  </style>
 </defs>
 <g id="Layer_x0020_1">
  <metadata id="CorelCorpID_0Corel-Layer"/>
  <g id="_1808278885168">
   <g>
    <polygon class="fil0" points="47.56,1969.03 -0,312.16 986.85,337.16 941.33,1969.03 "/>
    <polygon class="fil1" points="1286.36,1969.03 1322.21,835.1 2051.53,835.1 2065.76,1969.03 "/>
    <polygon class="fil2" points="2362.99,1969.03 2341.72,449.62 3363.17,406.36 3319.9,1969.03 "/>
    <polygon class="fil3" points="3642.49,1969.03 3578.41,672.64 4582.56,724.55 4519.43,1969.03 "/>
   </g>
   <path class="fil4" d="M2935.71 1969.03l-70.29 -85.18 94.89 85.18 -24.6 0zm192.87 0l36.65 -497.57 36.65 497.57 -73.29 0zm241.56 0l94.89 -85.18 -69.98 85.18 -24.92 0zm-1860.48 0l-13.6 0c4.72,-41.43 6.8,-88.19 6.8,-140.94 0,52.75 2.08,99.5 6.8,140.94zm2878.8 -977.25l416.07 -29.8 -416.07 -28.84 147.98 -160.53 -172 138.43 -31.71 -390.28 -31.71 389.32 -172 -138.43 147.98 160.54 -416.07 29.8 416.07 29.8 -147.98 160.54 172 -138.43 31.71 389.32 31.71 -389.32 172 138.43 -147.98 -160.54zm-3082.58 -440.27c-25.94,-4.8 -50.93,13.46 -58.61,42.3l-416.07 -76.9 358.42 -241.28c6.73,7.69 16.34,11.53 26.9,11.53 20.18,0 36.52,-16.34 36.52,-36.53 0,-20.19 -16.34,-36.53 -36.52,-36.53 -20.18,0 -36.51,16.34 -36.51,36.53 0,5.77 0.96,10.57 3.84,15.38l-359.38 241.28 73.99 -393.16c24.98,1.92 49.01,-19.22 54.77,-48.06 5.76,-31.72 -11.53,-60.56 -39.4,-65.37 -27.87,-4.81 -53.81,15.38 -60.54,47.1 -5.77,28.84 9.61,56.71 33.63,64.4l-73.99 392.2 -238.31 -340.29c7.69,-8.65 12.49,-19.23 15.38,-30.76 5.76,-31.72 -11.53,-60.56 -39.4,-65.36 -27.87,-4.81 -53.81,15.38 -60.54,47.1 -5.76,31.72 11.53,60.56 39.4,65.36 13.45,2.89 25.94,-0.96 37.48,-9.61l237.34 340.29 -427.6 -79.78c1.92,-21.15 -11.53,-41.34 -29.79,-44.22 -21.14,-3.84 -41.32,11.53 -45.16,35.57 -4.81,24.03 8.65,46.14 29.79,49.99 19.22,3.84 37.48,-9.61 44.2,-29.8l427.6 79.78 -369.95 246.09c-5.77,-7.69 -15.38,-13.46 -24.98,-13.46 -17.29,0 -31.71,13.46 -31.71,31.72 0,17.3 13.45,31.72 31.71,31.72 17.3,0 31.71,-13.46 31.71,-31.72 0,-2.89 -0.96,-5.77 -0.96,-8.65l369.95 -248.97 -74.95 403.73c-20.18,-2.88 -40.36,12.5 -44.2,35.57 -4.8,24.03 8.65,46.14 29.79,49.99 21.14,3.84 41.32,-11.53 45.16,-35.57 3.84,-19.22 -4.8,-38.45 -20.18,-46.14l74.95 -404.7 239.27 341.26c-7.69,8.65 -12.49,19.22 -15.38,30.76 -5.76,31.72 11.53,60.56 39.4,65.37 27.87,4.8 53.81,-15.38 60.54,-47.1 5.77,-31.72 -11.53,-60.56 -39.4,-65.37 -13.45,-2.89 -25.94,0.96 -37.48,9.61l-238.3 -340.29 416.07 76.9c-2.88,28.84 13.45,55.76 39.4,60.56 27.87,4.81 53.81,-15.38 60.54,-47.1 5.77,-30.76 -11.53,-60.56 -38.43,-65.37z"/>
  </g>
 </g>
</svg>
