<?xml version="1.0" encoding="UTF-8"?>
<!DOCTYPE svg PUBLIC "-//W3C//DTD SVG 1.1//EN" "http://www.w3.org/Graphics/SVG/1.1/DTD/svg11.dtd">
<!-- Creator: CorelDRAW -->
<svg xmlns="http://www.w3.org/2000/svg" xml:space="preserve" width="2.53234in" height="3.36783in" version="1.1" style="shape-rendering:geometricPrecision; text-rendering:geometricPrecision; image-rendering:optimizeQuality; fill-rule:evenodd; clip-rule:evenodd"
viewBox="0 0 11138.1 14812.9"
 xmlns:xlink="http://www.w3.org/1999/xlink"
 xmlns:xodm="http://www.corel.com/coreldraw/odm/2003">
 <defs>
  <style type="text/css">
   <![CDATA[
    .fil0 {fill:#cfe9e6;fill-rule:nonzero}
   ]]>
  </style>
 </defs>
 <g id="Layer_x0020_1">
  <metadata id="CorelCorpID_0Corel-Layer"/>
  <path class="fil0" d="M9380.98 13186.2l-1032.09 -893.47 -190.43 2520.17 -190.46 -2520.17 -1032.09 893.47 887.72 -1041.35 -2500.37 -191.02 2500.37 -191 -890.8 -1041.37 1032.1 893.47 190.43 -2520.17 190.46 2520.17 1032.09 -893.47 -887.72 1041.37 2503.44 191 -2500.37 191.02 887.72 1041.35zm-3194.57 -11559.51l1397.62 -101.66 -1397.62 -101.68 497.6 -554.56 -577.46 477.53 -107.5 -1346.33 -107.53 1343.26 -577.46 -477.53 497.6 554.56 -1397.62 101.66 1397.62 101.66 -497.6 554.57 577.46 -477.57 107.53 1343.3 107.5 -1343.3 577.46 477.57 -497.6 -551.49zm-1775.44 3478.33c-1753.95,0 -2205.49,-452.89 -2205.49,-2212.09 0,1759.2 -451.52,2212.09 -2205.48,2212.09 1753.95,0 2205.48,452.87 2205.48,2212.07 0,-1759.2 451.54,-2212.07 2205.49,-2212.07zm6533.5 1069.07c-125.92,-24.66 -248.8,67.78 -288.73,206.41l-2033.47 -378.95 1753.95 -1183.07c33.78,36.97 79.86,58.56 132.09,58.56 98.3,0 178.17,-80.12 178.17,-178.7 0,-98.6 -79.9,-178.69 -178.17,-178.69 -98.3,0 -178.17,80.09 -178.17,178.69 0,27.72 6.15,52.36 18.44,77.02l-1757.02 1183.07 359.37 -1925.56c122.89,9.25 239.62,-92.43 267.26,-234.17 27.64,-154.03 -58.37,-295.76 -190.46,-320.39 -135.14,-24.66 -264.16,77.02 -294.86,231.05 -27.64,141.72 46.06,277.29 165.86,314.26l-359.38 1922.46 -1167.26 -1672.91c36.87,-40.05 61.46,-92.42 73.73,-150.96 27.65,-154.05 -58.37,-295.78 -190.44,-320.4 -135.15,-24.66 -264.16,77.02 -294.88,231.07 -27.65,154.03 58.36,295.75 190.44,320.39 64.5,12.35 129.01,-6.15 181.23,-46.2l1161.09 1666.77 -2091.81 -391.28c9.19,-104.75 -55.31,-200.26 -147.47,-215.66 -101.37,-18.48 -199.66,58.55 -221.16,175.6 -21.49,117.08 43.03,224.9 144.37,243.4 92.16,18.49 184.33,-49.3 215.03,-147.88l2091.85 391.26 -1803.11 1210.79c-27.64,-36.95 -73.72,-64.69 -122.86,-64.69 -82.95,0 -153.58,67.76 -153.58,154.03 0,83.19 67.57,154.05 153.58,154.05 82.93,0 153.58,-67.78 153.58,-154.05 0,-15.39 -3.06,-27.71 -6.13,-40.05l1809.23 -1220.02 -368.6 1977.92c-98.3,-15.39 -196.61,61.61 -218.1,175.64 -21.51,117.08 43,224.9 144.37,243.36 101.37,18.49 199.66,-58.53 221.16,-175.6 18.42,-95.52 -24.57,-187.93 -98.3,-227.99l368.63 -1984.09 1167.22 1672.93c-36.87,40.04 -61.42,92.43 -73.7,150.95 -27.65,154.05 58.34,295.78 190.43,320.44 135.17,24.62 264.18,-77.02 294.9,-231.07 27.64,-154.05 -58.39,-295.78 -190.46,-320.42 -64.5,-12.31 -129.01,6.15 -181.23,46.2l-1161.09 -1666.75 2033.46 378.95c-15.36,141.7 67.6,271.12 193.53,295.75 135.17,24.66 264.18,-77.02 294.9,-231.05 30.7,-150.96 -55.29,-295.76 -187.4,-320.4z"/>
 </g>
</svg>
