<?xml version="1.0" encoding="UTF-8"?>
<!DOCTYPE svg PUBLIC "-//W3C//DTD SVG 1.1//EN" "http://www.w3.org/Graphics/SVG/1.1/DTD/svg11.dtd">
<!-- Creator: CorelDRAW -->
<svg xmlns="http://www.w3.org/2000/svg" xml:space="preserve" width="40.7971mm" height="15.6114mm" version="1.1" style="shape-rendering:geometricPrecision; text-rendering:geometricPrecision; image-rendering:optimizeQuality; fill-rule:evenodd; clip-rule:evenodd"
viewBox="0 0 1876.81 718.18"
 xmlns:xlink="http://www.w3.org/1999/xlink"
 xmlns:xodm="http://www.corel.com/coreldraw/odm/2003">
 <defs>
  <style type="text/css">
   <![CDATA[
    .fil1 {fill:#F9B334;fill-rule:nonzero}
    .fil0 {fill:black;fill-rule:nonzero;fill-opacity:0.960784}
   ]]>
  </style>
 </defs>
 <g id="Layer_x0020_1">
  <metadata id="CorelCorpID_0Corel-Layer"/>
  <g id="_2164076556816">
   <g id="_1808817245952">
    <g>
     <g>
      <path class="fil0" d="M104.7 714.23c6.22,0.88 11.6,-3.56 13.38,-9.83l111.44 -476.03 -0.95 411.87c0,42.8 33.91,73.09 76.71,73.09l4.43 0 247.81 -501.9 -115.89 396.66c-16.04,55.28 9.83,90.09 65.1,94.52 6.22,0 11.6,-4.43 13.38,-9.83l126.6 -504.56c17.82,-73.98 -13.38,-124.83 -76.71,-127.48 -16.93,-0.88 -21.37,3.54 -31.19,23.2l-227.34 454.67 -0.88 -357.48c0,-86.48 -20.48,-117.73 -109.61,-113.22 -5.39,0.88 -9.83,4.43 -11.6,9.77l-147.13 541.13c-11.53,43.68 12.49,86.48 62.45,95.41l0.01 0.01zm0 0z"/>
     </g>
    </g>
   </g>
   <g id="_1808817244704">
    <g>
     <g>
      <path class="fil0" d="M775.87 715.12c105.23,-0.88 158.68,-77.59 200.58,-220.17 47.29,-160.51 -13.38,-286.16 -126.54,-246.1 -102.57,-7.99 -170.28,79.37 -210.41,213.06 -52.61,174.72 1.78,275.45 136.37,253.2zm-24.91 -46.33c-49.07,-23.2 -41.9,-109.67 -16.04,-196.14 33.85,-112.34 56.99,-169.38 98.89,-175.6 78.49,0.88 74.05,101.62 47.29,187.2 -45.46,146.18 -72.2,198.8 -130.14,184.54zm0 0z"/>
     </g>
    </g>
   </g>
   <g id="_1808817249552">
    <g>
     <g>
      <path class="fil0" d="M1263.49 503.82c-2.66,-1.78 -6.22,-0.88 -7.09,3.54 -38.35,124.83 -79.37,135.54 -107.89,135.54 -35.63,0 -58.83,-25.86 -37.47,-93.64 36.58,-112.34 51.73,-151.51 76.71,-231.77 9.77,0 19.59,-0.88 28.52,-0.88l56.17 -1.78c8.87,0 15.16,-5.32 12.49,-13.38 -8.94,-25.86 -29.42,-51.73 -68.66,-51.73l-8.94 0c0.88,-4.43 2.66,-7.99 3.56,-12.43 27.64,-98.07 0.88,-128.38 -53.45,-128.38 -5.39,0 -9.83,3.54 -11.6,8.87 -16.04,55.28 -28.52,98.07 -40.12,135.53l-16.93 0c-22.31,0 -37.47,-0.88 -52.61,-0.88 -8.87,0 -16.93,3.54 -15.16,11.53 5.39,24.98 23.2,59.78 55.28,58.83l7.17 0c-16.99,49.95 -33.92,101.68 -58.89,179.21 -40.07,129.26 -3.56,214.84 92.75,214.84 88.24,0 132.81,-66 166.73,-167.62 5.33,-17.82 -0.95,-32.08 -20.55,-45.46l0 0.03zm0 0z"/>
     </g>
    </g>
   </g>
   <g id="_1808817251376">
    <g>
     <g>
      <path class="fil0" d="M1640.54 503.82c-2.66,-1.78 -6.22,-0.88 -7.09,3.54 -35.69,124.83 -107.89,135.54 -172.06,135.54 -57.94,0 -103.4,-19.65 -110.56,-82.04 6.22,1.78 13.38,2.66 21.43,4.43 69.48,12.49 147.96,-23.14 198.74,-126.54 48.18,-98.07 14.26,-190.81 -74.86,-187.2 -92.69,-24.09 -185.44,25.79 -230,190.75 -67.77,249.58 100.74,274.56 164.07,274.56 130.14,0 200.58,-66 230.88,-167.62 5.33,-18.7 -0.88,-32.97 -20.55,-45.46l-0 0.03zm-183.66 -206.79c55.28,11.6 60.67,45.46 33.92,112.34 -29.42,62.38 -51.73,94.45 -136.43,88.24 2.66,-14.26 6.27,-29.42 10.71,-45.46 28.54,-97.18 50.84,-150.69 91.8,-155.12zm0 0z"/>
     </g>
    </g>
   </g>
   <g id="_1808817251712">
    <g>
     <g>
      <path class="fil0" d="M1708.29 716.9c88.25,0 132.81,-66 166.67,-167.62 5.39,-17.82 -0.88,-32.08 -20.48,-45.46 -2.66,-1.78 -6.27,-0.88 -7.17,3.54 -38.29,124.83 -79.31,135.54 -107.83,135.54 -35.69,0 -41.01,-25.86 -19.65,-93.64l115 -381.51c27.64,-98.07 0.95,-128.38 -53.45,-128.38 -5.39,0 -9.83,3.54 -11.6,8.87l-136.43 453.78c-54.33,172.94 -24.03,214.84 74.93,214.84l0.01 0.02zm0 0z"/>
     </g>
    </g>
   </g>
   <g id="_1808817252240">
    <g>
     <g>
      <path class="fil1" d="M65.29 674.83c6.22,0.88 11.6,-3.54 13.38,-9.83l111.44 -476.02 -0.95 411.87c0,42.78 33.92,73.09 76.71,73.09l4.43 0 247.81 -501.9 -115.89 396.66c-16.04,55.28 9.83,90.09 65.1,94.52 6.22,0 11.6,-4.43 13.38,-9.83l126.6 -504.56c17.82,-73.98 -13.38,-124.82 -76.71,-127.49 -16.92,-0.88 -21.37,3.56 -31.19,23.2l-227.33 454.67 -0.88 -357.48c0,-86.46 -20.48,-117.72 -109.61,-113.22 -5.39,0.88 -9.83,4.43 -11.6,9.76l-147.13 541.13c-11.53,43.68 12.49,86.46 62.44,95.41l0 0.01zm0 0z"/>
     </g>
    </g>
   </g>
   <g id="_1808817252624">
    <g>
     <g>
      <path class="fil1" d="M736.47 675.72c105.24,-0.88 158.68,-77.59 200.58,-220.17 47.29,-160.51 -13.38,-286.16 -126.54,-246.1 -102.57,-7.99 -170.28,79.37 -210.41,213.06 -52.62,174.72 1.78,275.45 136.35,253.2l0.01 0zm-24.91 -46.34c-49.07,-23.2 -41.9,-109.67 -16.04,-196.14 33.85,-112.33 56.99,-169.38 98.9,-175.6 78.49,0.88 74.04,101.62 47.29,187.2 -45.46,146.19 -72.2,198.8 -130.14,184.54l-0.01 0zm0 0z"/>
     </g>
    </g>
   </g>
   <g id="_1808817253344">
    <g>
     <g>
      <path class="fil1" d="M1224.08 464.43c-2.66,-1.78 -6.22,-0.88 -7.11,3.56 -38.35,124.83 -79.37,135.53 -107.89,135.53 -35.63,0 -58.83,-25.86 -37.47,-93.63 36.58,-112.34 51.73,-151.51 76.71,-231.77 9.77,0 19.59,-0.88 28.52,-0.88l56.17 -1.78c8.87,0 15.14,-5.33 12.49,-13.38 -8.94,-25.86 -29.42,-51.73 -68.66,-51.73l-8.94 0c0.88,-4.43 2.66,-7.99 3.56,-12.43 27.64,-98.08 0.88,-128.38 -53.45,-128.38 -5.39,0 -9.83,3.56 -11.6,8.87 -16.04,55.28 -28.52,98.07 -40.12,135.53l-16.92 0c-22.32,0 -37.47,-0.88 -52.62,-0.88 -8.87,0 -16.92,3.56 -15.14,11.53 5.39,24.98 23.2,59.79 55.28,58.83l7.17 0c-16.99,49.95 -33.92,101.69 -58.89,179.21 -40.07,129.26 -3.56,214.84 92.75,214.84 88.25,0 132.81,-65.99 166.73,-167.61 5.32,-17.82 -0.95,-32.08 -20.55,-45.46l-0 0.01zm0 0z"/>
     </g>
    </g>
   </g>
   <g id="_1808817258096">
    <g>
     <g>
      <path class="fil1" d="M1601.14 464.43c-2.66,-1.78 -6.22,-0.88 -7.11,3.56 -35.69,124.83 -107.89,135.53 -172.06,135.53 -57.94,0 -103.4,-19.65 -110.56,-82.03 6.22,1.78 13.38,2.66 21.43,4.43 69.48,12.49 147.97,-23.14 198.74,-126.53 48.18,-98.08 14.26,-190.81 -74.88,-187.2 -92.69,-24.09 -185.44,25.8 -230,190.75 -67.77,249.59 100.74,274.56 164.07,274.56 130.15,0 200.58,-65.99 230.89,-167.61 5.32,-18.7 -0.88,-32.97 -20.55,-45.46l0.01 -0zm-183.66 -206.79c55.28,11.6 60.67,45.46 33.92,112.34 -29.42,62.38 -51.73,94.45 -136.43,88.24 2.66,-14.26 6.27,-29.42 10.72,-45.46 28.52,-97.18 50.84,-150.69 91.8,-155.12l-0.01 0zm0 0z"/>
     </g>
    </g>
   </g>
   <g id="_1808817263664">
    <g>
     <g>
      <path class="fil1" d="M1668.89 677.49c88.24,0 132.81,-65.99 166.67,-167.61 5.39,-17.82 -0.88,-32.08 -20.48,-45.46 -2.66,-1.78 -6.28,-0.88 -7.17,3.56 -38.29,124.83 -79.31,135.53 -107.83,135.53 -35.69,0 -41.02,-25.86 -19.65,-93.63l115 -381.51c27.64,-98.06 0.95,-128.37 -53.45,-128.37 -5.39,0 -9.83,3.56 -11.6,8.87l-136.43 453.78c-54.33,172.94 -24.03,214.84 74.93,214.84l0.01 0zm0 0z"/>
     </g>
    </g>
   </g>
  </g>
 </g>
</svg>
