<?xml version="1.0" encoding="UTF-8"?>
<!DOCTYPE svg PUBLIC "-//W3C//DTD SVG 1.1//EN" "http://www.w3.org/Graphics/SVG/1.1/DTD/svg11.dtd">
<!-- Creator: CorelDRAW -->
<svg xmlns="http://www.w3.org/2000/svg" xml:space="preserve" width="0.302232in" height="0.302161in" version="1.1" style="shape-rendering:geometricPrecision; text-rendering:geometricPrecision; image-rendering:optimizeQuality; fill-rule:evenodd; clip-rule:evenodd"
viewBox="0 0 31.67 31.66"
 xmlns:xlink="http://www.w3.org/1999/xlink"
 xmlns:xodm="http://www.corel.com/coreldraw/odm/2003">
 <defs>
  <style type="text/css">
   <![CDATA[
    .fil0 {fill:#264653;fill-rule:nonzero}
   ]]>
  </style>
 </defs>
 <g id="Layer_x0020_1">
  <metadata id="CorelCorpID_0Corel-Layer"/>
  <path class="fil0" d="M15.83 2.85c4.23,0 4.73,0.01 6.4,0.09 1.54,0.07 2.38,0.33 2.94,0.55 0.74,0.28 1.26,0.63 1.82,1.19 0.56,0.56 0.9,1.08 1.19,1.82 0.22,0.56 0.47,1.39 0.55,2.94 0.08,1.67 0.09,2.17 0.09,6.4 0,4.23 -0.01,4.73 -0.09,6.4 -0.07,1.54 -0.33,2.38 -0.55,2.94 -0.28,0.74 -0.63,1.26 -1.19,1.82 -0.55,0.56 -1.08,0.9 -1.82,1.19 -0.55,0.21 -1.39,0.47 -2.94,0.55 -1.67,0.08 -2.17,0.09 -6.4,0.09 -4.23,0 -4.73,-0.01 -6.4,-0.09 -1.54,-0.07 -2.38,-0.33 -2.94,-0.55 -0.74,-0.28 -1.26,-0.63 -1.82,-1.19 -0.56,-0.55 -0.9,-1.08 -1.19,-1.82 -0.22,-0.56 -0.47,-1.39 -0.55,-2.94 -0.08,-1.67 -0.09,-2.17 -0.09,-6.4 0,-4.23 0.01,-4.73 0.09,-6.4 0.07,-1.54 0.33,-2.38 0.55,-2.94 0.28,-0.74 0.63,-1.26 1.19,-1.82 0.56,-0.55 1.08,-0.9 1.82,-1.19 0.55,-0.21 1.39,-0.47 2.94,-0.55 1.67,-0.08 2.17,-0.09 6.4,-0.09zm0 -2.85c-4.3,0 -4.84,0.02 -6.53,0.1 -1.69,0.08 -2.84,0.35 -3.84,0.74 -1.04,0.4 -1.92,0.94 -2.8,1.83 -0.87,0.88 -1.42,1.76 -1.82,2.8 -0.39,1.01 -0.66,2.16 -0.74,3.84 -0.08,1.69 -0.1,2.23 -0.1,6.52 0,4.3 0.02,4.84 0.1,6.53 0.08,1.69 0.35,2.84 0.74,3.84 0.4,1.04 0.94,1.92 1.83,2.8 0.88,0.88 1.76,1.42 2.8,1.83 1.01,0.39 2.16,0.66 3.84,0.74 1.69,0.08 2.23,0.1 6.53,0.1 4.3,0 4.84,-0.02 6.53,-0.1 1.69,-0.08 2.84,-0.35 3.84,-0.74 1.04,-0.4 1.92,-0.94 2.8,-1.83 0.88,-0.88 1.42,-1.76 1.82,-2.8 0.39,-1.01 0.66,-2.16 0.74,-3.84 0.08,-1.69 0.1,-2.23 0.1,-6.53 0,-4.3 -0.02,-4.84 -0.1,-6.53 -0.08,-1.69 -0.35,-2.84 -0.74,-3.84 -0.4,-1.04 -0.94,-1.92 -1.82,-2.8 -0.88,-0.88 -1.76,-1.42 -2.8,-1.83 -1.01,-0.39 -2.16,-0.66 -3.84,-0.74 -1.69,-0.07 -2.23,-0.09 -6.54,-0.09z"/>
  <path class="fil0" d="M15.83 7.7c-4.49,0 -8.13,3.64 -8.13,8.13 0,4.49 3.64,8.13 8.13,8.13 4.49,0 8.13,-3.64 8.13,-8.13 -0.01,-4.49 -3.65,-8.13 -8.14,-8.13zm0 13.41c-2.91,0 -5.27,-2.36 -5.27,-5.27 0,-2.91 2.36,-5.27 5.27,-5.27 2.91,0 5.27,2.36 5.27,5.27 0.01,2.91 -2.36,5.27 -5.27,5.27z"/>
  <path class="fil0" d="M26.18 7.38c0,1.05 -0.85,1.9 -1.9,1.9 -1.05,0 -1.9,-0.85 -1.9,-1.9 0,-1.05 0.85,-1.9 1.9,-1.9 1.05,0 1.9,0.85 1.9,1.9z"/>
 </g>
</svg>
