<?xml version="1.0" encoding="UTF-8"?>
<!DOCTYPE svg PUBLIC "-//W3C//DTD SVG 1.1//EN" "http://www.w3.org/Graphics/SVG/1.1/DTD/svg11.dtd">
<!-- Creator: CorelDRAW -->
<svg xmlns="http://www.w3.org/2000/svg" xml:space="preserve" width="0.322335in" height="0.263807in" version="1.1" style="shape-rendering:geometricPrecision; text-rendering:geometricPrecision; image-rendering:optimizeQuality; fill-rule:evenodd; clip-rule:evenodd"
viewBox="0 0 26.4 21.6"
 xmlns:xlink="http://www.w3.org/1999/xlink"
 xmlns:xodm="http://www.corel.com/coreldraw/odm/2003">
 <defs>
  <style type="text/css">
   <![CDATA[
    .fil0 {fill:#264653;fill-rule:nonzero}
   ]]>
  </style>
 </defs>
 <g id="Layer_x0020_1">
  <metadata id="CorelCorpID_0Corel-Layer"/>
  <path class="fil0" d="M23.69 5.38c0.02,0.23 0.02,0.47 0.02,0.71 0,7.21 -5.45,15.52 -15.41,15.52l0 -0c-2.94,0 -5.82,-0.84 -8.3,-2.44 0.43,0.05 0.86,0.08 1.29,0.08 2.44,0 4.81,-0.82 6.73,-2.34 -2.32,-0.04 -4.35,-1.57 -5.06,-3.79 0.81,0.16 1.65,0.13 2.44,-0.09 -2.53,-0.51 -4.34,-2.75 -4.34,-5.35 0,-0.02 0,-0.05 0,-0.07 0.75,0.42 1.6,0.66 2.46,0.68 -2.38,-1.6 -3.11,-4.79 -1.68,-7.28 2.75,3.41 6.81,5.48 11.16,5.7 -0.44,-1.89 0.16,-3.88 1.57,-5.21 2.18,-2.07 5.61,-1.96 7.66,0.24 1.21,-0.24 2.38,-0.69 3.44,-1.32 -0.4,1.26 -1.25,2.34 -2.38,3.02 1.07,-0.13 2.12,-0.42 3.11,-0.86 -0.73,1.1 -1.64,2.05 -2.7,2.83z"/>
 </g>
</svg>
