<?xml version="1.0" encoding="UTF-8"?>
<!DOCTYPE svg PUBLIC "-//W3C//DTD SVG 1.1//EN" "http://www.w3.org/Graphics/SVG/1.1/DTD/svg11.dtd">
<!-- Creator: CorelDRAW -->
<svg xmlns="http://www.w3.org/2000/svg" xml:space="preserve" width="2.54291in" height="2.54291in" version="1.1" style="shape-rendering:geometricPrecision; text-rendering:geometricPrecision; image-rendering:optimizeQuality; fill-rule:evenodd; clip-rule:evenodd"
viewBox="0 0 902.79 902.79"
 xmlns:xlink="http://www.w3.org/1999/xlink"
 xmlns:xodm="http://www.corel.com/coreldraw/odm/2003">
 <defs>
  <style type="text/css">
   <![CDATA[
    .fil3 {fill:#264653;fill-rule:nonzero}
    .fil2 {fill:#7AA782;fill-rule:nonzero}
    .fil0 {fill:#E87854;fill-rule:nonzero}
    .fil4 {fill:#EFB360;fill-rule:nonzero}
    .fil1 {fill:#F6E8C2;fill-rule:nonzero}
   ]]>
  </style>
 </defs>
 <g id="Layer_x0020_1">
  <metadata id="CorelCorpID_0Corel-Layer"/>
  <g id="_1808280205344">
   <path class="fil0" d="M451.42 0c-83.11,300.95 -150.48,368.32 -451.42,451.42 39.45,10.89 74.85,21.52 106.83,32.43l0 0.01 0.03 -0c211.98,72.34 272.35,157.48 344.55,418.92l0.03 0c83.09,-300.88 150.47,-368.26 451.35,-451.35l0 -0.03c-300.9,-83.1 -368.27,-150.48 -451.37,-451.41z"/>
   <path class="fil1" d="M451.42 89.3c-66.66,241.42 -120.71,295.46 -362.13,362.13 13.52,3.73 26.42,7.43 38.8,11.12l0.01 0.1 0.29 -0.02c208.43,62.16 260.13,123.13 323.03,350.92 66.66,-241.42 120.71,-295.46 362.13,-362.12 -241.42,-66.67 -295.46,-120.71 -362.13,-362.13z"/>
   <path class="fil2" d="M451.42 178.6c-49.12,177.87 -89.16,220.73 -261,269.51l-0.55 0.03 0.01 0.13c-3.7,1.05 -7.45,2.1 -11.27,3.16 181.88,50.23 222.6,90.94 272.82,272.82 50.23,-181.88 90.94,-222.6 272.82,-272.82 -181.88,-50.23 -222.6,-90.94 -272.82,-272.83z"/>
   <path class="fil3" d="M451.42 267.9c-27.75,100.49 -51.2,136.92 -126.48,165.45l-0.22 0.01 0 0.07c-16.33,6.18 -35.07,11.98 -56.83,17.99 122.35,33.78 149.74,61.17 183.52,183.52 33.78,-122.35 61.18,-149.74 183.52,-183.52 -122.35,-33.79 -149.74,-61.18 -183.52,-183.53z"/>
   <path class="fil4" d="M451.42 357.2c-15.41,55.82 -28.26,73.14 -75,88.48l-0.19 0.01 0 0.05c-5.81,1.9 -12.11,3.77 -19.03,5.69 62.82,17.35 76.88,31.41 94.22,94.22 17.35,-62.82 31.41,-76.88 94.22,-94.22 -62.82,-17.35 -76.88,-31.41 -94.22,-94.23z"/>
  </g>
 </g>
</svg>
