<?xml version="1.0" encoding="UTF-8"?>
<!DOCTYPE svg PUBLIC "-//W3C//DTD SVG 1.1//EN" "http://www.w3.org/Graphics/SVG/1.1/DTD/svg11.dtd">
<!-- Creator: CorelDRAW -->
<svg xmlns="http://www.w3.org/2000/svg" xml:space="preserve" width="2.51969in" height="2.51969in" version="1.1" style="shape-rendering:geometricPrecision; text-rendering:geometricPrecision; image-rendering:optimizeQuality; fill-rule:evenodd; clip-rule:evenodd"
viewBox="0 0 1010.1 1010.1"
 xmlns:xlink="http://www.w3.org/1999/xlink"
 xmlns:xodm="http://www.corel.com/coreldraw/odm/2003">
 <defs>
  <style type="text/css">
   <![CDATA[
    .fil0 {fill:#264653;fill-rule:nonzero}
    .fil2 {fill:#7AA782;fill-rule:nonzero}
    .fil3 {fill:#EFB360;fill-rule:nonzero}
    .fil1 {fill:#F6E8C2;fill-rule:nonzero}
   ]]>
  </style>
 </defs>
 <g id="Layer_x0020_1">
  <metadata id="CorelCorpID_0Corel-Layer"/>
  <g id="_1688617508144">
   <g id="_1850064820864">
    <path class="fil0" d="M505.08 0c-92.98,336.72 -168.36,412.1 -505.08,505.08 44.13,12.19 83.75,24.08 119.53,36.29l0 0.01 0.03 0c237.17,80.94 304.72,176.2 385.5,468.72l0.03 0c92.97,-336.65 168.36,-412.03 505,-505l0 -0.03c-336.67,-92.98 -412.04,-168.36 -505.02,-505.07l0 0z"/>
    <path class="fil1" d="M505.08 99.92c-74.59,270.12 -135.06,330.58 -405.17,405.17 15.13,4.17 29.56,8.31 43.41,12.44l0.01 0.12 0.32 -0.02c233.21,69.55 291.05,137.77 361.43,392.63 74.59,-270.11 135.05,-330.57 405.17,-405.17 -270.12,-74.59 -330.58,-135.06 -405.17,-405.18l0 0.01z"/>
    <path class="fil2" d="M505.08 199.83c-54.95,199.01 -99.76,246.97 -292.03,301.55l-0.62 0.03 0.01 0.14c-4.14,1.17 -8.33,2.35 -12.61,3.53 203.5,56.2 249.06,101.75 305.25,305.25 56.2,-203.5 101.75,-249.06 305.25,-305.25 -203.5,-56.2 -249.06,-101.75 -305.25,-305.25z"/>
    <path class="fil0" d="M505.08 299.75c-31.05,112.43 -57.28,153.2 -141.51,185.12l-0.25 0.01 0.01 0.08c-18.27,6.91 -39.24,13.41 -63.59,20.13 136.89,37.8 167.54,68.45 205.34,205.34 37.8,-136.89 68.45,-167.54 205.34,-205.34 -136.9,-37.8 -167.54,-68.45 -205.34,-205.34l-0 0z"/>
    <path class="fil3" d="M505.08 399.66c-17.25,62.45 -31.63,81.83 -83.92,98.99l-0.22 0.01 0.01 0.06c-6.5,2.12 -13.54,4.22 -21.29,6.36 70.28,19.41 86.01,35.14 105.42,105.42 19.41,-70.29 35.14,-86.01 105.42,-105.42 -70.28,-19.41 -86.01,-35.14 -105.42,-105.42l-0 0z"/>
   </g>
  </g>
 </g>
</svg>
