<?xml version="1.0" encoding="UTF-8"?>
<!DOCTYPE svg PUBLIC "-//W3C//DTD SVG 1.1//EN" "http://www.w3.org/Graphics/SVG/1.1/DTD/svg11.dtd">
<!-- Creator: CorelDRAW -->
<svg xmlns="http://www.w3.org/2000/svg" xml:space="preserve" width="2.54291in" height="2.54291in" version="1.1" style="shape-rendering:geometricPrecision; text-rendering:geometricPrecision; image-rendering:optimizeQuality; fill-rule:evenodd; clip-rule:evenodd"
viewBox="0 0 2560.87 2560.86"
 xmlns:xlink="http://www.w3.org/1999/xlink"
 xmlns:xodm="http://www.corel.com/coreldraw/odm/2003">
 <defs>
  <style type="text/css">
   <![CDATA[
    .fil3 {fill:#264653;fill-rule:nonzero}
    .fil0 {fill:#2A9D8F;fill-rule:nonzero}
    .fil2 {fill:#7AA782;fill-rule:nonzero}
    .fil4 {fill:#E87854;fill-rule:nonzero}
    .fil1 {fill:#F6E8C2;fill-rule:nonzero}
   ]]>
  </style>
 </defs>
 <g id="Layer_x0020_1">
  <metadata id="CorelCorpID_0Corel-Layer"/>
  <g id="_1808280177216">
   <path class="fil0" d="M-0 1280.35c853.68,235.74 1044.78,426.83 1280.52,1280.51 30.9,-111.9 61.04,-212.32 92.01,-303.05l0.03 0 -0 -0.07c205.2,-601.29 446.71,-772.54 1188.32,-977.35l0 -0.09c-853.48,-235.7 -1044.6,-426.83 -1280.31,-1280.31l-0.09 0c-235.72,853.53 -426.85,1044.63 -1280.47,1280.35z"/>
   <path class="fil1" d="M253.31 1280.35c684.8,189.1 838.1,342.4 1027.21,1027.21 10.59,-38.35 21.07,-74.95 31.53,-110.06l0.29 -0.02 -0.05 -0.82c176.32,-591.24 349.28,-737.88 995.43,-916.31 -684.8,-189.1 -838.1,-342.4 -1027.2,-1027.21 -189.11,684.8 -342.41,838.1 -1027.21,1027.21z"/>
   <path class="fil2" d="M506.62 1280.35c504.54,139.32 626.13,252.92 764.5,740.37l0.09 1.56 0.36 -0.02c2.98,10.51 5.96,21.12 8.96,31.98 142.47,-515.93 257.97,-631.42 773.9,-773.89 -515.93,-142.47 -631.43,-257.97 -773.9,-773.9 -142.48,515.93 -257.97,631.43 -773.9,773.9z"/>
   <path class="fil3" d="M759.93 1280.35c285.05,78.71 388.39,145.22 469.31,358.76l0.04 0.62 0.2 -0.01c17.52,46.31 33.99,99.48 51.04,161.22 95.83,-347.06 173.53,-424.75 520.59,-520.59 -347.06,-95.84 -424.75,-173.53 -520.59,-520.59 -95.84,347.06 -173.53,424.75 -520.59,520.59z"/>
   <path class="fil4" d="M1013.23 1280.35c158.34,43.72 207.47,80.18 250.98,212.76l0.03 0.55 0.15 -0.01c5.4,16.47 10.71,34.34 16.13,53.98 49.2,-178.19 89.09,-218.07 267.28,-267.28 -178.18,-49.21 -218.07,-89.09 -267.28,-267.28 -49.21,178.19 -89.09,218.07 -267.28,267.28z"/>
  </g>
 </g>
</svg>
